<?xml version="1.0" encoding="UTF-8" standalone="no"?>
<!-- Created with Inkscape (http://www.inkscape.org/) -->

<svg
   width="106.24801mm"
   height="87.977478mm"
   viewBox="0 0 106.24801 87.977478"
   version="1.1"
   id="svg1"
   xml:space="preserve"
   sodipodi:docname="cjhtlogotruesvgblack.svg"
   inkscape:version="1.4 (86a8ad7, 2024-10-11)"
   xmlns:inkscape="http://www.inkscape.org/namespaces/inkscape"
   xmlns:sodipodi="http://sodipodi.sourceforge.net/DTD/sodipodi-0.dtd"
   xmlns="http://www.w3.org/2000/svg"
   xmlns:svg="http://www.w3.org/2000/svg"><sodipodi:namedview
     id="namedview1"
     pagecolor="#ffffff"
     bordercolor="#000000"
     borderopacity="0.25"
     inkscape:showpageshadow="2"
     inkscape:pageopacity="0.0"
     inkscape:pagecheckerboard="0"
     inkscape:deskcolor="#d1d1d1"
     inkscape:document-units="mm"
     inkscape:zoom="0.72426346"
     inkscape:cx="470.13279"
     inkscape:cy="235.41157"
     inkscape:window-width="1920"
     inkscape:window-height="1094"
     inkscape:window-x="-11"
     inkscape:window-y="1069"
     inkscape:window-maximized="1"
     inkscape:current-layer="layer1"><inkscape:page
       x="-3.6272095e-13"
       y="0"
       width="106.24802"
       height="87.977478"
       id="page2"
       margin="0"
       bleed="0" /></sodipodi:namedview><defs
     id="defs1" /><g
     inkscape:label="Layer 1"
     inkscape:groupmode="layer"
     id="layer1"
     transform="translate(-41.08783,-14.425909)"><path
       style="fill:#000000"
       d="m 87.815183,102.32004 c -0.116416,-0.0462 -0.336352,-0.20447 -0.488746,-0.35176 -0.276054,-0.26681 -0.428901,-0.66042 -0.730776,-1.88188 -0.06905,-0.279397 -0.223797,-0.850897 -0.343878,-1.269997 -0.120081,-0.4191 -0.272961,-0.9906 -0.339733,-1.27 -0.06677,-0.2794 -0.277393,-1.0795 -0.468047,-1.778 -0.190653,-0.6985 -0.437255,-1.6129 -0.548003,-2.032 -0.36313,-1.374173 -1.045196,-3.912068 -1.290882,-4.803229 -0.07941,-0.288021 -0.18874,-0.500851 -0.269021,-0.523669 -0.07439,-0.02114 -0.554347,-0.06142 -1.066581,-0.08951 -1.296272,-0.07109 -3.604598,-0.438584 -5.188261,-0.826 -0.199244,-0.04874 -0.373756,-0.07384 -0.387804,-0.05577 -0.03049,0.03921 -1.064916,1.854448 -1.382162,2.425451 -0.122659,0.22077 -0.314258,0.546759 -0.425776,0.724421 -0.111517,0.177662 -0.272018,0.444362 -0.356667,0.592666 -0.213713,0.374422 -2.286238,3.966114 -2.378518,4.121979 -0.04135,0.06985 -0.292148,0.508 -0.557317,0.973667 -1.234112,2.167237 -1.759246,3.060499 -1.886005,3.208124 -0.197514,0.230028 -0.765279,0.47085 -1.115188,0.473016 -0.356567,0.0022 -0.744714,-0.19433 -3.255636,-1.64849 -1.024467,-0.593303 -2.004525,-1.160015 -2.177906,-1.259358 -0.446364,-0.255757 -3.299538,-1.909648 -3.452428,-2.001258 -0.525417,-0.314827 -1.875179,-1.081807 -2.116667,-1.202761 -1.175853,-0.588948 -1.502512,-1.529877 -0.886046,-2.552223 0.164369,-0.272588 0.566207,-0.958388 0.892975,-1.524 0.326767,-0.565611 0.62855,-1.085534 0.670629,-1.155384 0.04208,-0.06985 0.311355,-0.5461 0.598392,-1.058333 0.287038,-0.512233 0.627301,-1.102783 0.756141,-1.312333 0.128841,-0.20955 0.329092,-0.55245 0.445003,-0.762001 0.17874,-0.323136 2.055517,-3.575094 2.516443,-4.360333 0.082,-0.1397 0.303166,-0.517749 0.491475,-0.840109 l 0.342379,-0.586108 -0.663387,-0.726225 c -0.800169,-0.875962 -1.643286,-1.881081 -1.83875,-2.192058 -0.07865,-0.125125 -0.230927,-0.3418 -0.338401,-0.4815 -0.107473,-0.1397 -0.223406,-0.2921 -0.257629,-0.338667 -0.07342,-0.0999 -0.529997,-0.786839 -0.653591,-0.983352 -0.35889,-0.570634 -1.219092,-2.11133 -1.28273,-2.297481 -0.02786,-0.08149 -0.05916,-0.148167 -0.06957,-0.148167 -0.0104,0 -0.310759,0.0762 -0.667458,0.169333 -0.356699,0.09313 -0.940822,0.245645 -1.29805,0.338913 -0.357229,0.09327 -0.843004,0.224795 -1.0795,0.292281 -0.236497,0.06749 -0.753844,0.205858 -1.149661,0.307495 -0.736982,0.189242 -1.246184,0.326697 -2.582333,0.697081 -0.4191,0.116176 -1.08585,0.293038 -1.481667,0.393028 -0.395817,0.09999 -0.891117,0.234672 -1.100667,0.299292 -0.20955,0.06462 -0.6096,0.174046 -0.889,0.243168 -0.2794,0.06912 -0.889,0.227618 -1.354667,0.352216 -1.139273,0.304833 -1.154369,0.305581 -1.622534,0.08039 -0.510012,-0.245318 -0.643574,-0.436592 -0.826431,-1.183531 -0.0798,-0.325967 -0.203736,-0.802217 -0.275415,-1.058333 -0.07168,-0.256117 -0.199544,-0.713317 -0.284148,-1.016001 -0.0846,-0.302683 -0.256608,-0.950383 -0.382232,-1.439333 -0.125625,-0.48895 -0.294899,-1.1176 -0.376165,-1.397 -0.08127,-0.2794 -0.230916,-0.83185 -0.332555,-1.227667 -0.10164,-0.395816 -0.259061,-0.995891 -0.349826,-1.3335 -0.09077,-0.337608 -0.241227,-0.899583 -0.334361,-1.248833 -0.09313,-0.34925 -0.248182,-0.930275 -0.344553,-1.291167 -0.09637,-0.360891 -0.248771,-0.90652 -0.338666,-1.212507 -0.209478,-0.713019 -0.20666,-1.121718 0.0104,-1.507919 0.191472,-0.340679 0.637221,-0.687407 0.88372,-0.687407 0.08695,0 0.408441,-0.07355 0.714428,-0.163447 0.305987,-0.0899 0.851615,-0.242296 1.212507,-0.338667 0.767501,-0.20495 1.678808,-0.447992 2.54,-0.677407 0.337609,-0.08994 0.956734,-0.258111 1.375834,-0.37372 0.4191,-0.115609 1.08585,-0.294534 1.481666,-0.39761 0.395817,-0.103077 0.94614,-0.258753 1.22294,-0.345947 0.276801,-0.0872 0.571276,-0.158536 0.654389,-0.158536 0.08311,0 0.390041,-0.07325 0.68206,-0.16278 0.29202,-0.08953 0.854795,-0.245406 1.250612,-0.346393 0.395816,-0.100987 0.971562,-0.261553 1.279434,-0.356814 l 0.559768,-0.173203 0.05491,-0.983238 c 0.10409,-1.86378 0.481442,-4.731858 0.696204,-5.291518 0.02886,-0.0752 0.01705,-0.13672 -0.02622,-0.13672 -0.08128,0 -0.742879,-0.359056 -1.336428,-0.725294 -0.186266,-0.114933 -0.414866,-0.246351 -0.508,-0.292041 -0.09313,-0.04569 -0.347664,-0.187907 -0.565625,-0.316036 -0.217961,-0.12813 -0.675161,-0.396142 -1.016,-0.595584 -0.34084,-0.199441 -0.676858,-0.398212 -0.746708,-0.441713 -0.06985,-0.0435 -0.481233,-0.28037 -0.914184,-0.526378 -0.432951,-0.246009 -0.852051,-0.48679 -0.931333,-0.53507 -0.07928,-0.04828 -0.33465,-0.191508 -0.567483,-0.318284 -0.482754,-0.262857 -0.837451,-0.469272 -1.143,-0.665167 -0.116417,-0.07464 -0.421217,-0.249133 -0.677334,-0.387768 -0.256116,-0.138635 -0.599016,-0.331752 -0.762,-0.429148 -0.351866,-0.210269 -1.500114,-0.871348 -2.235171,-1.286851 -0.728274,-0.411669 -0.848881,-0.508463 -1.054962,-0.846667 -0.227936,-0.37407 -0.242701,-0.995478 -0.03041,-1.279748 0.08294,-0.111055 0.260071,-0.411468 0.393634,-0.667585 0.133562,-0.256117 0.280297,-0.513745 0.326077,-0.572508 0.08397,-0.107784 0.125214,-0.181073 0.642359,-1.141501 0.156858,-0.291312 0.332518,-0.586808 0.390356,-0.656658 0.05784,-0.06985 0.245371,-0.37465 0.41674,-0.677333 0.171368,-0.302683 0.346879,-0.607483 0.390023,-0.677333 0.04314,-0.06985 0.279723,-0.482529 0.525731,-0.917064 0.737724,-1.303073 0.79161,-1.397701 0.996501,-1.749937 0.108349,-0.186266 0.23931,-0.414866 0.291025,-0.508 0.05172,-0.09313 0.155378,-0.264583 0.230363,-0.381 0.07499,-0.116416 0.261144,-0.440266 0.413687,-0.719666 0.889385,-1.629007 1.396796,-2.441992 1.633421,-2.617102 0.188236,-0.139301 0.359188,-0.175991 0.804333,-0.172628 0.591282,0.0045 0.527218,-0.02201 1.865643,0.771094 0.169573,0.100483 0.47024,0.269161 0.668149,0.374841 0.197908,0.105679 0.359833,0.22349 0.359833,0.261802 0,0.03831 0.07395,0.06966 0.164337,0.06966 0.09038,0 0.186544,0.03593 0.213687,0.07985 0.02714,0.04392 0.343717,0.24143 0.703497,0.438915 0.35978,0.197485 0.666846,0.390152 0.682368,0.428149 0.01552,0.038 0.06345,0.06908 0.1065,0.06908 0.08489,0 1.616165,0.849174 1.685611,0.93476 0.02328,0.0287 0.156634,0.109638 0.296334,0.179875 0.272717,0.137113 0.774702,0.422261 1.185333,0.673316 0.1397,0.08541 0.42545,0.249188 0.635,0.363948 0.20955,0.114761 0.497443,0.277606 0.639761,0.361879 0.142319,0.08427 0.555475,0.324673 0.918125,0.534223 0.362651,0.20955 0.788097,0.4572 0.945437,0.550333 0.15734,0.09313 0.440269,0.254843 0.628733,0.359356 l 0.34266,0.190022 0.705534,-0.698022 c 0.388044,-0.383913 0.854008,-0.83374 1.035476,-0.999616 0.574891,-0.525496 3.024844,-2.450074 3.1189,-2.450074 0.01947,0 0.264843,-0.1524 0.545273,-0.338666 0.28043,-0.186267 0.549824,-0.338667 0.598654,-0.338667 0.04883,0 0.08878,-0.03198 0.08878,-0.07108 0,-0.03909 0.104775,-0.118781 0.232834,-0.177087 0.128058,-0.0583 0.406754,-0.218667 0.619325,-0.356359 l 0.386491,-0.250349 -0.450816,-1.710398 c -0.24795,-0.940719 -0.528164,-1.996148 -0.622699,-2.345398 -0.09453,-0.34925 -0.207942,-0.76835 -0.252014,-0.931333 -0.103493,-0.382728 -0.503358,-1.883167 -0.846132,-3.175 -0.148272,-0.5588 -0.299318,-1.11125 -0.335659,-1.227667 -0.03634,-0.116417 -0.170045,-0.611717 -0.297121,-1.100667 -0.127077,-0.48895 -0.307488,-1.1557 -0.400914,-1.481666 -0.23971,-0.836355 -0.22152,-1.411639 0.05736,-1.814058 0.256124,-0.369587 0.39748,-0.453109 1.147349,-0.677919 0.688797,-0.2065 3.074157,-0.849954 3.471334,-0.936396 0.162983,-0.03547 0.734483,-0.18652 1.27,-0.335663 0.535517,-0.149143 1.468967,-0.401591 2.074333,-0.560996 0.605367,-0.159404 1.386417,-0.367546 1.735667,-0.462538 3.471155,-0.944107 3.41978,-0.933613 3.888812,-0.794325 0.498807,0.148129 0.843542,0.506331 0.987566,1.026141 0.06203,0.223898 0.192016,0.692837 0.288847,1.042087 0.09683,0.34925 0.266518,0.9779 0.377082,1.397 0.110564,0.4191 0.283229,1.0668 0.3837,1.439333 0.423175,1.569089 0.782117,2.914349 1.016582,3.810001 0.08533,0.325966 0.277256,1.030816 0.426497,1.566333 0.149241,0.535517 0.302524,1.126067 0.340628,1.312333 0.0381,0.186267 0.125866,0.497188 0.195025,0.690936 0.06916,0.193747 0.146488,0.482781 0.171839,0.642296 0.09229,0.5807 -0.03198,0.543859 2.024559,0.600201 2.451677,0.06717 4.709092,0.354777 6.470579,0.824394 0.336627,0.08975 0.66985,0.163173 0.740497,0.163173 0.07065,0 0.347674,0.0734 0.615618,0.163101 1.045877,0.350151 0.956211,0.38493 1.516691,-0.588272 0.271964,-0.47223 0.555828,-0.960277 0.63081,-1.084548 0.07498,-0.124271 0.717716,-1.235597 1.428299,-2.469614 0.710582,-1.234017 1.368995,-2.377017 1.46314,-2.54 0.09414,-0.162984 0.26743,-0.467784 0.385077,-0.677334 0.11765,-0.20955 0.35234,-0.6096 0.52155,-0.889 0.1692,-0.2794 0.54545,-0.9271 0.8361,-1.439333 0.96863,-1.70707 1.13426,-1.939889 1.50534,-2.115977 0.59089,-0.280397 1.01441,-0.202854 1.98969,0.364293 0.21535,0.125226 1.0845,0.627734 1.93146,1.116684 0.84696,0.48895 1.68042,0.975384 1.85213,1.080964 0.17172,0.105581 0.39882,0.228796 0.50467,0.273813 0.10584,0.04502 0.40186,0.215808 0.65781,0.379536 0.25594,0.163728 0.4846,0.297687 0.50812,0.297687 0.0235,0 0.27996,0.145788 0.56986,0.323972 0.2899,0.178185 1.35958,0.79731 2.37707,1.375834 1.93623,1.100895 2.27477,1.356579 2.43366,1.838026 0.17357,0.525925 0.0572,0.925202 -0.59782,2.051053 -0.66829,1.148668 -0.8504,1.462471 -1.09275,1.882949 -1.23871,2.149146 -2.77962,4.826821 -2.91119,5.058833 -0.0924,0.162983 -0.22058,0.371486 -0.28479,0.463339 -0.0642,0.09185 -0.11676,0.196628 -0.11676,0.232833 0,0.03621 1.1811,0.06583 2.62467,0.06583 h 2.62467 v 5.757334 5.757333 h 5.03766 5.03767 v -5.757333 -5.757334 h 10.62567 10.62566 v 2.794 2.794 h -2.794 -2.794 v 12.403667 12.403667 h -2.96333 -2.96333 V 52.165068 39.761401 h -1.905 -1.905 v 12.403667 12.403667 h -2.96334 -2.96333 v -6.646333 -6.646334 h -5.03767 -5.03766 v 6.646334 6.646333 h -3.00567 -3.00567 l -0.006,-3.704166 -0.006,-3.704167 -0.19611,0.931333 c -0.38577,1.831997 -0.96187,2.969748 -2.11428,4.175452 -1.15202,1.205306 -2.75514,2.036394 -4.52647,2.34661 -0.94144,0.164875 -3.06834,0.16232 -4.041819,-0.0049 -2.80599,-0.48187 -5.206943,-1.834721 -7.396471,-4.167647 -0.420083,-0.447595 -0.763787,-0.856653 -0.763787,-0.909018 0,-0.05236 0.903374,-0.931308 2.007497,-1.953208 1.104123,-1.021901 2.228811,-2.062813 2.499307,-2.313139 l 0.49181,-0.455138 1.082301,1.055254 c 1.635313,1.594445 2.697507,2.142389 4.042492,2.085364 0.85086,-0.03607 1.23419,-0.255536 1.5908,-0.910753 0.44693,-0.821145 0.49443,-1.343249 0.5378,-5.910681 l 0.0396,-4.167758 -0.62128,-0.622878 c -0.64236,-0.644001 -1.34789,-1.291918 -2.04602,-1.878939 -0.22153,-0.186266 -0.49591,-0.422112 -0.609749,-0.524101 -0.113838,-0.10199 -0.464649,-0.368081 -0.779581,-0.591314 -0.314931,-0.223232 -0.610703,-0.437284 -0.657269,-0.47567 -0.326871,-0.269447 -2.929885,-1.837915 -3.050185,-1.837915 -0.01751,0 -0.386129,-0.164611 -0.819158,-0.365803 -1.077477,-0.500612 -1.742455,-0.745549 -3.242658,-1.194397 -1.486312,-0.444692 -3.699734,-0.722434 -5.757334,-0.722434 -2.89891,0 -5.220871,0.42206 -7.535334,1.369689 -0.626746,0.256613 -2.061425,0.9798 -2.497667,1.259012 -0.20955,0.134121 -0.43815,0.271116 -0.508,0.304433 -0.06985,0.03332 -0.2794,0.168533 -0.465666,0.300479 -0.186267,0.131946 -0.433917,0.304414 -0.550334,0.383262 -0.116416,0.07885 -0.242135,0.191901 -0.279373,0.251227 -0.03724,0.05933 -0.100242,0.107866 -0.140006,0.107866 -0.07772,0 -0.385563,0.256141 -1.271965,1.058333 -1.113207,1.007449 -2.244114,2.317638 -2.996426,3.471446 -0.273223,0.419038 -0.568498,0.86512 -0.656166,0.991292 -0.08767,0.126173 -0.159397,0.260204 -0.159397,0.297846 0,0.03764 -0.08754,0.201111 -0.194524,0.363262 -0.35691,0.540935 -1.016851,2.160387 -1.396731,3.427488 -1.151083,3.839476 -1.01242,9.121829 0.338936,12.911667 0.252702,0.708695 0.477905,1.230728 0.931386,2.159 0.505515,1.034787 0.593577,1.189836 1.126436,1.983286 0.23219,0.345741 0.460263,0.687763 0.50683,0.76005 0.04657,0.07229 0.124716,0.170407 0.173665,0.218047 0.04895,0.04764 0.237253,0.277117 0.418454,0.50995 0.615869,0.791359 2.114058,2.214101 3.090881,2.935228 0.535517,0.395338 1.030817,0.744984 1.100667,0.77699 0.06985,0.03201 0.29845,0.169634 0.508,0.30584 0.53413,0.347181 2.297669,1.218078 3.005667,1.484303 1.430199,0.537791 2.73121,0.883303 4.297353,1.141258 1.42161,0.234149 5.237615,0.258154 6.455314,0.04061 0.419101,-0.07487 0.971551,-0.168585 1.227667,-0.208246 1.365084,-0.211394 3.556382,-0.950146 4.995334,-1.684077 0.93224,-0.475485 2.548556,-1.449755 2.775914,-1.673243 0.0599,-0.05888 0.221828,-0.17376 0.359834,-0.255282 0.138005,-0.08152 0.250919,-0.178107 0.250919,-0.214634 0,-0.03653 0.04041,-0.06641 0.0898,-0.06641 0.07961,0 1.434526,-1.059715 1.981976,-1.550146 0.63694,-0.570607 1.3465,-1.220437 1.90755,-1.746961 0.34925,-0.327757 0.6731,-0.596221 0.71967,-0.596587 0.0466,-3.65e-4 0.50377,0.439832 1.016,0.978215 0.51223,0.538384 1.17898,1.235792 1.48167,1.549795 0.30268,0.314003 1.27423,1.330726 2.159,2.259383 0.88477,0.928657 1.89381,1.986155 2.24232,2.349997 l 0.63365,0.661529 -0.76065,0.71826 c -1.62184,1.531447 -2.16374,2.007404 -3.57051,3.135989 -0.55008,0.441305 -1.06726,0.857157 -1.14928,0.924116 -0.082,0.06696 -0.17086,0.121743 -0.19742,0.121743 -0.0266,0 -0.20709,0.128997 -0.4012,0.286661 -0.4558,0.370231 -2.18873,1.533256 -2.68125,1.799468 -0.20955,0.113266 -0.5334,0.296007 -0.71966,0.406092 -0.49249,0.291064 -2.001238,1.042502 -2.214859,1.103118 -0.336028,0.09535 -0.380959,0.234844 -0.249784,0.775486 0.15885,0.654705 0.53881,2.091939 0.679915,2.571842 0.06161,0.20955 0.116357,0.4191 0.121652,0.465667 0.009,0.07896 0.06277,0.273805 0.409036,1.481666 0.0734,0.256117 0.20677,0.751417 0.29633,1.100667 0.0896,0.34925 0.21501,0.8255 0.27878,1.058333 0.28585,1.043693 0.57865,2.154496 0.68068,2.582334 0.0611,0.256116 0.11716,0.465666 0.12463,0.465666 0.007,0 0.0263,0.05715 0.0418,0.127 0.0156,0.06985 0.0895,0.3556 0.16432,0.635 0.20356,0.760098 0.11569,1.18383 -0.33623,1.62153 -0.20975,0.20315 -0.48213,0.375419 -0.6453,0.408128 -0.15529,0.03113 -0.4538,0.108511 -0.66335,0.171959 -0.209548,0.06345 -1.123948,0.311293 -2.031998,0.550767 -0.90805,0.239479 -1.89865,0.504639 -2.201333,0.589249 -0.67461,0.18859 -1.586702,0.43281 -2.540001,0.6801 -0.395816,0.10268 -0.967316,0.2556 -1.27,0.33983 -0.302683,0.0842 -0.931333,0.25338 -1.397,0.37589 -0.465666,0.12251 -1.113366,0.29745 -1.439333,0.38875 -0.647529,0.18137 -0.987319,0.19969 -1.312334,0.0708 z"
       id="path1" /></g></svg>
