<svg width="401.567" height="332.513" viewBox="0 0 106.248 87.977" xmlns="http://www.w3.org/2000/svg"><path d="M46.727 87.894c-.116-.046-.336-.204-.488-.352-.276-.266-.43-.66-.731-1.882-.07-.279-.224-.85-.344-1.27-.12-.419-.273-.99-.34-1.27a83.21 83.21 0 00-.468-1.778c-.19-.698-.437-1.612-.548-2.032a686.548 686.548 0 00-1.29-4.803c-.08-.288-.19-.5-.27-.523-.074-.022-.554-.062-1.066-.09-1.297-.071-3.605-.438-5.189-.826-.199-.049-.373-.074-.387-.056-.03.04-1.065 1.855-1.383 2.426-.122.22-.314.547-.425.724-.112.178-.272.445-.357.593-.214.374-2.286 3.966-2.379 4.122-.04.07-.292.508-.557.974-1.234 2.167-1.76 3.06-1.886 3.208-.197.23-.765.47-1.115.473-.357.002-.745-.195-3.256-1.649l-2.178-1.26c-.446-.255-3.3-1.909-3.452-2a69.07 69.07 0 00-2.117-1.203c-1.176-.59-1.502-1.53-.886-2.552.165-.273.567-.959.893-1.524l.67-1.156c.043-.07.312-.546.6-1.058.286-.512.627-1.103.755-1.312.13-.21.33-.553.445-.763a625.37 625.37 0 013.008-5.2l.343-.586-.664-.726c-.8-.876-1.643-1.881-1.838-2.192a7.588 7.588 0 00-.339-.482 30.19 30.19 0 01-.257-.339c-.074-.1-.53-.786-.654-.983-.359-.57-1.22-2.111-1.283-2.297-.028-.082-.059-.149-.07-.149-.01 0-.31.077-.667.17l-1.298.339c-.357.093-.843.225-1.08.292a57.12 57.12 0 01-1.149.308c-.737.189-1.246.326-2.582.697-.42.116-1.086.293-1.482.393-.396.1-.891.234-1.1.299-.21.065-.61.174-.89.243a94.7 94.7 0 00-1.354.352c-1.14.305-1.155.306-1.623.08-.51-.245-.643-.436-.826-1.183-.08-.326-.204-.802-.276-1.058l-.284-1.016c-.084-.303-.256-.95-.382-1.44a59.15 59.15 0 00-.376-1.397c-.082-.279-.231-.831-.333-1.227-.101-.396-.259-.996-.35-1.334a765.885 765.885 0 01-.679-2.54c-.096-.36-.248-.906-.338-1.212-.21-.713-.207-1.122.01-1.508.192-.34.637-.688.884-.688.087 0 .408-.073.714-.163.306-.09.852-.242 1.213-.339l2.54-.677c.337-.09.957-.258 1.376-.374.419-.115 1.086-.294 1.481-.397a31.31 31.31 0 001.223-.346c.277-.087.572-.159.655-.159.083 0 .39-.073.682-.163.292-.09.855-.245 1.25-.346.396-.101.972-.262 1.28-.357l.56-.173.054-.983c.105-1.864.482-4.732.697-5.292.029-.075.017-.137-.027-.137-.08 0-.742-.359-1.336-.725a8.227 8.227 0 00-.508-.292 12.256 12.256 0 01-.566-.316l-1.016-.595c-.34-.2-.676-.399-.746-.442-.07-.044-.482-.28-.914-.527a74.713 74.713 0 01-.932-.535c-.08-.048-.334-.191-.567-.318-.483-.263-.838-.47-1.143-.665-.117-.075-.422-.25-.678-.388a25.901 25.901 0 01-.762-.429c-.352-.21-1.5-.871-2.235-1.287-.728-.412-.849-.508-1.055-.847-.228-.374-.242-.995-.03-1.28.083-.11.26-.41.393-.667.134-.256.28-.514.327-.572.083-.108.125-.181.642-1.142.157-.291.332-.587.39-.657a7.84 7.84 0 00.417-.677c.171-.303.347-.607.39-.677.043-.07.28-.483.526-.917.737-1.303.791-1.398.996-1.75.109-.186.24-.415.291-.508.052-.093.156-.265.23-.381.076-.117.262-.44.414-.72.89-1.629 1.397-2.442 1.634-2.617.188-.14.359-.176.804-.173.591.005.527-.022 1.866.772.17.1.47.269.668.374.198.106.36.224.36.262 0 .038.074.07.164.07.09 0 .187.036.214.08.027.044.343.241.703.439.36.197.667.39.683.428.015.038.063.069.106.069.085 0 1.616.849 1.686.935.023.028.156.11.296.18.273.137.775.422 1.185.673.14.085.426.249.635.364.21.114.498.277.64.362.142.084.556.324.918.534l.946.55c.157.093.44.255.628.36l.343.19.706-.698c.388-.384.854-.834 1.035-1 .575-.526 3.025-2.45 3.119-2.45.02 0 .265-.153.545-.339.28-.186.55-.339.599-.339.049 0 .089-.031.089-.07 0-.04.104-.12.233-.178.128-.058.406-.218.619-.356l.386-.25-.45-1.71a541.165 541.165 0 00-.875-3.278c-.104-.382-.504-1.883-.846-3.175-.149-.558-.3-1.11-.336-1.227a42.76 42.76 0 01-.297-1.1 77.347 77.347 0 00-.401-1.483c-.24-.836-.222-1.411.057-1.814.256-.37.398-.453 1.148-.677.688-.207 3.074-.85 3.471-.937.163-.035.735-.186 1.27-.336.536-.149 1.469-.401 2.074-.56.606-.16 1.387-.368 1.736-.463 3.471-.944 3.42-.934 3.889-.794.499.148.843.506.987 1.026l.29 1.042a141 141 0 01.376 1.397c.11.419.284 1.067.384 1.44.423 1.568.782 2.914 1.017 3.81.085.325.277 1.03.426 1.565.15.536.303 1.127.34 1.313.039.186.127.497.196.69.069.195.146.484.172.643.092.58-.032.544 2.024.6 2.452.067 4.71.355 6.47.825.337.09.67.163.741.163.07 0 .348.073.616.163 1.046.35.956.385 1.517-.588.272-.473.555-.96.63-1.085.075-.124.718-1.235 1.429-2.47l1.463-2.54c.094-.162.267-.467.385-.677.118-.21.352-.61.521-.889.17-.28.546-.927.837-1.44.968-1.706 1.134-1.94 1.505-2.115.59-.28 1.014-.203 1.99.364l1.931 1.117c.847.489 1.68.975 1.852 1.08.172.106.399.23.505.275.106.045.402.215.658.38.256.163.484.297.508.297.023 0 .28.146.57.324.29.178 1.36.797 2.377 1.376 1.936 1.1 2.274 1.356 2.433 1.838.174.526.058.925-.597 2.05-.669 1.15-.85 1.463-1.093 1.884-1.239 2.149-2.78 4.826-2.911 5.058-.093.163-.221.372-.285.464-.064.092-.117.196-.117.233 0 .036 1.181.065 2.625.065h2.624v11.515h10.076V19.747H106.248v5.588h-5.588v24.808h-5.927V25.335h-3.81v24.808h-5.926V36.85H74.92v13.293H68.91l-.006-3.704-.006-3.705-.196.932c-.386 1.832-.962 2.97-2.114 4.175-1.152 1.206-2.756 2.037-4.527 2.347-.941.165-3.068.162-4.042-.005-2.806-.482-5.207-1.835-7.396-4.168-.42-.447-.764-.856-.764-.909 0-.052.903-.931 2.008-1.953l2.499-2.313.492-.455 1.082 1.055c1.635 1.595 2.698 2.142 4.042 2.085.851-.036 1.235-.255 1.591-.91.447-.821.495-1.344.538-5.911l.04-4.168-.622-.623a32.292 32.292 0 00-2.046-1.879 33.733 33.733 0 01-.61-.524 12.397 12.397 0 00-.779-.591c-.315-.223-.61-.437-.657-.476-.327-.27-2.93-1.838-3.05-1.838-.018 0-.387-.164-.82-.365-1.077-.501-1.742-.746-3.242-1.195-1.487-.444-3.7-.722-5.758-.722-2.898 0-5.22.422-7.535 1.37-.627.256-2.061.98-2.498 1.259-.21.134-.438.27-.508.304a4.97 4.97 0 00-.465.3 40.63 40.63 0 01-.55.384 1.207 1.207 0 00-.28.25c-.037.06-.1.109-.14.109-.078 0-.385.256-1.272 1.058-1.113 1.008-2.244 2.318-2.996 3.472-.274.419-.569.865-.656.99-.088.127-.16.261-.16.299 0 .037-.087.2-.194.363-.357.54-1.017 2.16-1.397 3.427-1.151 3.84-1.013 9.122.339 12.912.253.709.478 1.23.931 2.16.506 1.034.594 1.189 1.127 1.982.232.346.46.688.506.76.047.073.125.17.174.218.05.048.237.278.419.51.615.792 2.114 2.215 3.09 2.936.536.395 1.031.745 1.101.777.07.032.299.17.508.306.534.347 2.298 1.218 3.006 1.484 1.43.538 2.731.883 4.297 1.141 1.422.234 5.238.258 6.455.04.42-.074.972-.168 1.228-.208 1.365-.211 3.557-.95 4.995-1.684.933-.475 2.549-1.45 2.776-1.673.06-.059.222-.174.36-.255.138-.082.251-.178.251-.215 0-.036.04-.066.09-.066.08 0 1.434-1.06 1.982-1.55.637-.571 1.346-1.22 1.907-1.747.35-.328.674-.597.72-.597.047 0 .504.44 1.016.978.512.539 1.18 1.236 1.482 1.55.302.314 1.274 1.33 2.159 2.26l2.242 2.35.634.661-.76.718c-1.623 1.532-2.165 2.008-3.571 3.136l-1.15.924c-.082.067-.17.122-.197.122-.027 0-.207.13-.401.287-.456.37-2.189 1.533-2.682 1.8-.21.113-.533.295-.72.405-.492.291-2 1.043-2.214 1.103-.336.096-.381.235-.25.776.159.655.539 2.092.68 2.572.062.21.116.419.122.465.009.08.062.274.409 1.482.073.256.207.752.296 1.1.09.35.215.826.279 1.06a110.7 110.7 0 01.68 2.581c.062.257.118.466.125.466.007 0 .026.057.042.127.016.07.09.356.164.635.204.76.116 1.184-.336 1.622-.21.203-.482.375-.645.408a8.824 8.824 0 00-.664.172c-.21.063-1.124.311-2.032.55-.908.24-1.898.505-2.2.59-.676.188-1.588.433-2.54.68-.397.103-.968.255-1.27.34-.304.084-.932.253-1.398.376-.466.122-1.113.297-1.44.388-.647.182-.987.2-1.312.071z"/></svg>