<svg width="404.16" height="334.838" viewBox="0 0 106.934 88.593" xmlns="http://www.w3.org/2000/svg"><path d="M47.032 88.497c-.757-.265-1.095-.821-1.515-2.49-.166-.657-.813-3.095-1.44-5.418a731.503 731.503 0 01-1.32-4.944c-.273-1.082-.265-1.075-1.246-1.137-.98-.062-3.283-.402-4.452-.658-.715-.157-.844-.165-.941-.061-.062.066-1.55 2.616-3.308 5.666-1.758 3.05-3.294 5.691-3.413 5.869a1.773 1.773 0 01-1.5.776c-.651 0-.609.021-6.102-3.149a773.926 773.926 0 00-4.947-2.84c-1.083-.595-1.475-1.14-1.479-2.053-.002-.485.038-.662.217-.973 1.336-2.329 4.951-8.588 5.638-9.76.485-.828.902-1.56.927-1.625.027-.071-.333-.551-.904-1.204-1.342-1.534-2.845-3.696-3.55-5.107a12.528 12.528 0 00-.3-.577c-.013-.015-1.656.412-3.651.947-1.996.536-4.18 1.113-4.856 1.282-.675.17-1.77.457-2.434.64-.663.183-1.368.332-1.566.331-.775-.004-1.406-.508-1.623-1.295C2.901 59.387.954 52.12.514 50.443.231 49.364 0 48.353 0 48.196c0-.157.086-.453.19-.658.345-.674.537-.761 3.281-1.484 1.374-.361 3.508-.933 4.742-1.27 1.234-.336 2.872-.775 3.64-.974.769-.199 1.574-.414 1.79-.477l.391-.116.058-.91c.087-1.379.285-3.09.477-4.115.095-.506.16-.928.146-.938-.014-.01-.273-.154-.576-.32-2.703-1.48-11.353-6.556-11.573-6.791-.309-.33-.485-.88-.425-1.325.046-.347.635-1.432 3.146-5.793 2.439-4.238 3.5-5.986 3.739-6.164.337-.252 1.065-.367 1.53-.242.218.058 1.104.517 1.969 1.02 3.23 1.88 3.858 2.242 6.661 3.837l2.87 1.634.55-.553c1.544-1.55 3.865-3.308 6.336-4.799.116-.07.062-.282-2.02-7.941-1.311-4.825-1.352-5.053-1.018-5.708.376-.736.568-.812 5.084-1.999 1.7-.447 4.138-1.103 5.419-1.458C38.402.098 38.834.005 39.427 0c.635-.005.72.015 1.05.249.198.14.428.387.513.55.084.163.88 3.001 1.77 6.308.889 3.306 1.651 6.097 1.694 6.201.074.184.118.19 1.126.19 1.292 0 4.166.272 5.474.517.908.17 2.45.533 3.28.77.228.066.387.074.435.022.076-.081 3.527-6.018 5.412-9.31.56-.977 1.141-1.924 1.293-2.105.352-.42.843-.642 1.426-.644.564-.002.602.017 5.85 3.048a451.01 451.01 0 004.698 2.687c1.07.585 1.426.868 1.716 1.362.184.314.23.497.228.902-.004.563-.175.964-1.012 2.367-.25.421-1.2 2.061-2.108 3.645l-1.653 2.878 2.494.023 2.494.022v11.512h9.398V19.681H106.934V25.946h-5.588V50.753h-6.604V25.946h-3.133V50.753h-6.604V37.461h-9.398v13.292H68.92v-5.037l-.254.535c-1.002 2.118-3.082 3.788-5.504 4.42-.897.233-3.485.33-4.573.172-1.517-.222-3.367-.883-4.66-1.664-1.786-1.08-3.975-3.16-3.975-3.779 0-.31.249-.626 1.118-1.42.485-.443 1.48-1.363 2.213-2.045 1.371-1.278 1.785-1.565 2.107-1.463.101.032.631.489 1.178 1.014 1.498 1.44 2.608 2.026 3.732 1.968.632-.033.904-.18 1.233-.662.492-.723.611-1.969.611-6.368v-3.377l-.227-.299c-.594-.778-3.519-3.21-5.146-4.278a22 22 0 00-9.63-3.45c-1.033-.113-3.508-.116-4.512-.004-4.374.485-8.19 2.308-11.26 5.376-2.617 2.618-4.48 6.027-5.156 9.44-.765 3.86-.366 8.586 1.007 11.901 1.786 4.317 4.737 7.463 8.89 9.478 1.633.793 3.163 1.318 4.84 1.66 1.293.265 1.427.275 3.83.309 2.267.032 2.589.018 3.598-.15 3.012-.505 5.306-1.358 7.697-2.865 1.394-.878 2.34-1.638 5.571-4.48.567-.497.816-.594 1.163-.45.131.055 1.629 1.554 3.328 3.333 4.469 4.679 4.247 4.412 4.052 4.882-.187.45-3.29 3.19-5.462 4.821-1.907 1.432-3.288 2.3-5.27 3.315-.702.358-1.038.576-1.038.672 0 .077.136.633.302 1.235.392 1.418 1.397 5.18 2.106 7.883.605 2.307.624 2.521.27 3.107-.408.677-.474.702-5.133 1.95-5.749 1.538-8.203 2.166-8.44 2.16a1.983 1.983 0 01-.493-.096zm1.06-.663c.162-.049 1.457-.394 2.877-.767 2.987-.784 7.653-2.04 8.494-2.286.38-.112.684-.267.889-.455.282-.259.31-.325.3-.695-.013-.394-.87-3.724-2.207-8.578-.647-2.348-.765-3.065-.546-3.328.062-.076.71-.449 1.439-.83 3.214-1.678 6.117-3.811 9.575-7.036l.714-.666-.507-.526c-.278-.29-1.266-1.325-2.195-2.302-2.755-2.895-4.212-4.4-4.335-4.475-.08-.049-.35.145-.893.64-.765.698-2.692 2.348-3.451 2.958-.695.557-2.473 1.677-3.467 2.184-1.864.95-3.243 1.422-5.503 1.882-1.25.254-1.425.269-3.712.302-1.515.022-2.67-.001-3.132-.062-7.366-.969-13.16-5.277-15.8-11.748-1.427-3.496-1.855-7.983-1.147-12.006.995-5.658 5.082-11.083 10.329-13.71 2.686-1.346 5.25-1.973 8.39-2.055 3.861-.1 7.131.604 10.533 2.266 2.274 1.11 4.65 2.827 6.97 5.035 1.184 1.127 1.116.827 1.115 4.874-.001 5.098-.17 6.259-1.03 7.08-.68.653-1.61.788-2.764.402-.943-.315-1.799-.884-2.817-1.875-.493-.479-.953-.871-1.023-.871-.069 0-.83.657-1.691 1.46-.86.804-1.858 1.73-2.216 2.06-.358.329-.65.647-.65.706 0 .191 1.968 2.064 2.753 2.62 1.378.975 3.248 1.771 4.907 2.089.785.15 3.163.167 4.05.03 2.36-.366 4.534-1.907 5.599-3.968.407-.79.756-1.87.853-2.648l.06-.486h.632l.056 1.029c.03.566.055 2.147.055 3.513v2.485h5.334V36.783h10.753v13.293H90.932V25.269h4.487V50.076h5.25V25.269h5.588v-4.911H85.683v11.515H74.93V20.358h-5.496l1.954-3.408a441.326 441.326 0 012.49-4.304c.925-1.541 1.029-1.912.692-2.463-.256-.419-.433-.546-1.896-1.363a716.908 716.908 0 01-5.266-3.015c-2.205-1.272-4.127-2.346-4.271-2.387-.397-.114-.857.045-1.147.397-.136.166-.698 1.089-1.248 2.05-2.119 3.708-5.23 9.044-5.426 9.306-.247.33-.525.414-.992.298-.192-.048-.787-.2-1.323-.338-2.195-.566-5.208-.954-7.41-.954-1.277 0-1.56-.08-1.717-.483-.05-.13-.764-2.732-1.584-5.782C40.344.676 40.45 1.023 40.1.806c-.304-.188-.808-.225-1.323-.098-.163.04-1.058.283-1.99.54-.93.258-3.16.855-4.952 1.327-4.468 1.177-4.958 1.33-5.212 1.633-.297.353-.27.88.12 2.35.525 1.984 2.017 7.505 2.59 9.587l.53 1.926-.69.367c-2.168 1.153-6.205 4.362-6.705 5.328-.073.14-.175.228-.238.204-.141-.054-6.485-3.684-9.488-5.429-2.263-1.315-2.29-1.328-2.725-1.294-.242.018-.498.082-.569.14-.19.158-1.125 1.718-3.456 5.765-2.737 4.75-3.198 5.601-3.198 5.895 0 .356.277.751.693.99 2.557 1.464 8.592 4.94 9.806 5.649.861.502 1.73.957 1.93 1.01.282.074.354.129.32.24-.394 1.29-.811 4.478-.811 6.195v.582l-.275.085c-.152.047-1.094.301-2.096.564-1 .263-2.64.702-3.64.977-1.002.274-3.116.842-4.7 1.262-3.847 1.021-3.637.758-2.886 3.602 1.25 4.737 2.713 10.139 2.83 10.456.115.31.213.417.524.571l.383.19 1.099-.3a350.87 350.87 0 013.554-.937c2.546-.659 8-2.121 8.206-2.2.084-.032.157.087.25.405.157.54 1.244 2.373 2.174 3.669.369.514 1.128 1.46 1.688 2.104.83.955 1.017 1.218 1.017 1.433 0 .184-.327.823-1.091 2.13a1762.388 1762.388 0 00-5.527 9.572c-.38.679-.304 1.238.24 1.751.131.125.678.473 1.213.772.536.299 2.803 1.603 5.038 2.897 4.353 2.52 4.781 2.748 5.148 2.75.29 0 .634-.171.873-.436.099-.11 1.618-2.694 3.376-5.744 1.758-3.05 3.277-5.669 3.377-5.82.317-.48.518-.508 1.823-.248 1.746.347 3.084.545 4.114.609 1.071.066 1.42.181 1.598.528.07.136.304.91.52 1.72.215.812.792 2.961 1.282 4.777a684.45 684.45 0 011.26 4.727c.424 1.64.571 1.971.974 2.187.33.177.588.194 1.013.068z"/></svg>