<?xml version="1.0" encoding="UTF-8" standalone="no"?>
<!-- Created with Inkscape (http://www.inkscape.org/) -->

<svg
   width="106.93399mm"
   height="88.59256mm"
   viewBox="0 0 106.93399 88.59256"
   version="1.1"
   id="svg1"
   xml:space="preserve"
   inkscape:version="1.4 (86a8ad7, 2024-10-11)"
   sodipodi:docname="cjhtlogotruesvgoutline.svg"
   xmlns:inkscape="http://www.inkscape.org/namespaces/inkscape"
   xmlns:sodipodi="http://sodipodi.sourceforge.net/DTD/sodipodi-0.dtd"
   xmlns="http://www.w3.org/2000/svg"
   xmlns:svg="http://www.w3.org/2000/svg"><sodipodi:namedview
     id="namedview1"
     pagecolor="#ffffff"
     bordercolor="#000000"
     borderopacity="0.25"
     inkscape:showpageshadow="2"
     inkscape:pageopacity="0.0"
     inkscape:pagecheckerboard="0"
     inkscape:deskcolor="#d1d1d1"
     inkscape:document-units="mm"
     inkscape:zoom="0.75098906"
     inkscape:cx="397.47583"
     inkscape:cy="561.25984"
     inkscape:window-width="1920"
     inkscape:window-height="1094"
     inkscape:window-x="-11"
     inkscape:window-y="1069"
     inkscape:window-maximized="1"
     inkscape:current-layer="layer1"><inkscape:page
       x="0"
       y="0"
       width="106.93399"
       height="88.59256"
       id="page2"
       margin="0"
       bleed="0" /></sodipodi:namedview><defs
     id="defs1" /><g
     inkscape:label="Layer 1"
     inkscape:groupmode="layer"
     id="layer1"
     transform="translate(-45.862054,-30.126298)"><path
       style="fill:#000000"
       d="m 92.894392,118.62335 c -0.756866,-0.26457 -1.095738,-0.82115 -1.515802,-2.48964 -0.165442,-0.65713 -0.812984,-3.09553 -1.438983,-5.41867 -0.625998,-2.32313 -1.220039,-4.54772 -1.320091,-4.94354 -0.273426,-1.08171 -0.265823,-1.07477 -1.246232,-1.13676 -0.980413,-0.062 -3.283388,-0.40267 -4.451783,-0.65855 -0.715662,-0.15673 -0.844296,-0.16505 -0.941663,-0.0609 -0.06203,0.0663 -1.550717,2.61614 -3.308205,5.66625 -1.757488,3.05012 -3.293216,5.69095 -3.412729,5.86852 -0.331718,0.49286 -0.880966,0.77735 -1.49918,0.77652 -0.651866,-8.7e-4 -0.609598,0.0209 -6.10267,-3.1488 -2.417799,-1.39517 -4.64392,-2.67307 -4.946937,-2.83977 -1.082782,-0.59568 -1.475386,-1.14084 -1.478827,-2.05347 -0.0018,-0.48495 0.0375,-0.66191 0.216369,-0.97366 1.336056,-2.3286 4.951567,-8.587224 5.63825,-9.760088 0.484654,-0.827795 0.901751,-1.558666 0.926882,-1.624156 0.02749,-0.07164 -0.33237,-0.551324 -0.903441,-1.204249 -1.342084,-1.534452 -2.845383,-3.696552 -3.550769,-5.106845 -0.151393,-0.302683 -0.285999,-0.562412 -0.299125,-0.577176 -0.01313,-0.01476 -1.656435,0.411463 -3.651799,0.947171 -1.995364,0.535709 -4.180385,1.112504 -4.855601,1.281769 -0.675217,0.169264 -1.770465,0.457412 -2.433886,0.640328 -0.66342,0.182916 -1.36827,0.331738 -1.566333,0.330716 -0.774541,-0.004 -1.405766,-0.50779 -1.622493,-1.294938 -0.366254,-1.330223 -2.313552,-8.597126 -2.753165,-10.274223 -0.282768,-1.078744 -0.514124,-2.089846 -0.514124,-2.246893 0,-0.157048 0.08573,-0.45333 0.1905,-0.658406 0.34427,-0.673839 0.536947,-0.760948 3.280834,-1.483256 1.373716,-0.361621 3.507317,-0.933079 4.741333,-1.269906 1.234017,-0.336827 2.872317,-0.775297 3.640667,-0.974377 0.76835,-0.199081 1.573433,-0.413882 1.789073,-0.477336 l 0.392072,-0.115371 0.05748,-0.909884 c 0.08712,-1.379055 0.285466,-3.090384 0.47702,-4.11575 0.09452,-0.505926 0.160335,-0.92801 0.146266,-0.937965 -0.01407,-0.01 -0.273229,-0.153724 -0.575913,-0.319487 -2.703431,-1.480522 -11.353628,-6.556598 -11.573072,-6.791267 -0.309186,-0.330638 -0.48537,-0.879254 -0.425563,-1.325149 0.04647,-0.346462 0.635772,-1.431518 3.146184,-5.792934 2.439106,-4.237533 3.499413,-5.985692 3.738741,-6.16417 0.336961,-0.251287 1.065347,-0.366413 1.53073,-0.241942 0.217805,0.05825 1.103552,0.517615 1.968328,1.020803 3.230375,1.879661 3.85855,2.241468 6.661398,3.836729 l 2.869588,1.633247 0.550334,-0.552487 c 1.544149,-1.55019 3.865362,-3.308246 6.335957,-4.798771 0.116288,-0.07016 0.06235,-0.282241 -2.01958,-7.941409 -1.311447,-4.824647 -1.352159,-5.052892 -1.01809,-5.707723 0.375814,-0.736655 0.567472,-0.812022 5.083713,-1.999078 1.699684,-0.446747 4.138084,-1.103052 5.418668,-1.458455 1.995809,-0.553901 2.427049,-0.646893 3.01954,-0.651132 0.63565,-0.0045 0.720109,0.01547 1.050793,0.249054 0.197772,0.1397 0.428405,0.38735 0.512516,0.550334 0.08411,0.162983 0.88063,3.001433 1.770041,6.307666 0.889411,3.306234 1.651845,6.097059 1.694296,6.201834 0.07421,0.183151 0.117648,0.1905 1.12612,0.1905 1.292294,0 4.165839,0.271062 5.474028,0.516366 0.908173,0.170295 2.450869,0.532452 3.280393,0.770091 0.2275,0.06517 0.38698,0.07328 0.43456,0.02208 0.0758,-0.08157 3.52691,-6.01843 5.41164,-9.30954 0.56002,-0.9779 1.14189,-1.925403 1.29304,-2.105562 0.35267,-0.420342 0.84326,-0.64188 1.42666,-0.644246 0.56411,-0.0023 0.60135,0.01712 5.84904,3.047452 2.11879,1.223513 4.23334,2.433004 4.699,2.687758 1.06908,0.584861 1.42519,0.867574 1.71532,1.361766 0.18438,0.314062 0.23072,0.497402 0.22801,0.902165 -0.004,0.562501 -0.1751,0.963557 -1.01121,2.36687 -0.25095,0.421188 -1.19992,2.061197 -2.10883,3.644464 l -1.65255,2.878666 2.49413,0.02243 2.49413,0.02243 v 5.756074 5.756074 h 4.699 4.69901 v -5.757334 -5.757333 h 10.96433 10.96433 v 3.132666 3.132667 h -2.794 -2.794 v 12.403667 12.403667 h -3.302 -3.302 V 68.475835 56.072168 h -1.56633 -1.56633 v 12.403667 12.403667 h -3.302 -3.302 v -6.646333 -6.646334 h -4.69901 -4.699 v 6.646334 6.646333 h -3.34433 -3.34433 l -7e-5,-2.518833 -7e-5,-2.518834 -0.25352,0.535907 c -1.00158,2.11715 -3.08182,3.787386 -5.50368,4.418937 -0.89705,0.233926 -3.48516,0.331514 -4.57311,0.172435 -1.51722,-0.221847 -3.36738,-0.882437 -4.659867,-1.663776 -1.786702,-1.080108 -3.975023,-3.16027 -3.975023,-3.778556 0,-0.311381 0.248257,-0.626861 1.117907,-1.420613 0.484684,-0.442384 1.480415,-1.362551 2.212736,-2.044818 1.371507,-1.277764 1.785187,-1.564965 2.107017,-1.46282 0.10118,0.03211 0.63117,0.488422 1.17776,1.014025 1.49788,1.440375 2.60837,2.02577 3.73238,1.967525 0.63144,-0.03272 0.90423,-0.179163 1.23261,-0.661711 0.49191,-0.722843 0.61159,-1.969012 0.61159,-6.367889 V 63.17287 l -0.22771,-0.298546 c -0.59326,-0.777811 -3.51825,-3.209817 -5.14573,-4.278463 -2.860652,-1.878384 -6.19247,-3.071765 -9.63039,-3.449386 -1.032759,-0.113439 -3.507182,-0.115839 -4.511837,-0.0044 -4.373415,0.485212 -8.190478,2.307995 -11.25911,5.376628 -2.617736,2.617735 -4.479858,6.026334 -5.156417,9.438776 -0.765481,3.86095 -0.365864,8.586914 1.006404,11.901961 1.786943,4.316796 4.737723,7.462899 8.889789,9.478236 1.633289,0.792769 3.163517,1.317503 4.841255,1.660127 1.292795,0.264011 1.426066,0.274743 3.829165,0.308355 2.266854,0.03171 2.589001,0.01822 3.598334,-0.150665 3.012301,-0.50402 5.305595,-1.357288 7.696787,-2.863749 1.3938,-0.878102 2.3395,-1.638478 5.57147,-4.479669 0.56616,-0.497705 0.81555,-0.594285 1.16298,-0.450375 0.13111,0.0543 1.62845,1.554045 3.32743,3.332757 4.46908,4.67881 4.2471,4.411396 4.05229,4.881696 -0.18668,0.450688 -3.29041,3.190074 -5.46237,4.821147 -1.90656,1.431759 -3.28762,2.30031 -5.2705,3.31462 -0.70071,0.35843 -1.03717,0.57641 -1.03717,0.67195 0,0.0778 0.13603,0.63368 0.3023,1.23535 0.39196,1.41841 1.39681,5.18061 2.10551,7.88311 0.60509,2.30738 0.62373,2.52146 0.27053,3.10668 -0.40883,0.67741 -0.47475,0.70245 -5.13367,1.94958 -5.748645,1.53884 -8.202189,2.16685 -8.43955,2.16021 -0.131334,-0.004 -0.35309,-0.0466 -0.49279,-0.0955 z m 1.058892,-0.66338 c 0.162676,-0.0485 1.457825,-0.39333 2.878108,-0.76627 2.986304,-0.78414 7.652598,-2.04051 8.493668,-2.28685 0.3797,-0.11121 0.68403,-0.26692 0.889,-0.45483 0.28207,-0.2586 0.31048,-0.32454 0.29912,-0.69429 -0.0121,-0.39418 -0.86859,-3.72486 -2.20607,-8.57889 -0.6469,-2.34777 -0.76465,-3.06472 -0.54655,-3.32788 0.0624,-0.0753 0.71013,-0.4485 1.43933,-0.82928 3.21446,-1.678541 6.11726,-3.811609 9.57537,-7.036282 l 0.7142,-0.665989 -0.50692,-0.52612 c -0.27881,-0.289366 -1.26695,-1.32511 -2.19587,-2.301654 -2.75458,-2.895804 -4.21202,-4.400662 -4.33419,-4.475195 -0.0801,-0.04886 -0.35062,0.144866 -0.8938,0.640007 -0.76505,0.697391 -2.69116,2.348148 -3.45108,2.957712 -0.69443,0.557029 -2.47227,1.677081 -3.46621,2.183734 -1.864786,0.950563 -3.243193,1.421982 -5.503331,1.882154 -1.250515,0.254609 -1.425355,0.268832 -3.711654,0.301946 -1.514895,0.02194 -2.669643,-7.97e-4 -3.132667,-0.06168 C 80.927975,92.951716 75.133464,88.643104 72.49358,82.171818 71.067545,78.676106 70.638931,74.189781 71.346602,70.16636 c 0.995109,-5.657629 5.082876,-11.08342 10.329456,-13.710536 2.686493,-1.345206 5.250697,-1.972981 8.389868,-2.054028 3.861082,-0.09969 7.131416,0.603589 10.533134,2.265114 2.27352,1.11047 4.64992,2.827233 6.97079,5.035835 1.18366,1.126411 1.11503,0.826153 1.11406,4.873655 -10e-4,5.098236 -0.16982,6.258486 -1.02893,7.080478 -0.68138,0.651943 -1.61174,0.78698 -2.76533,0.401375 -0.94277,-0.315139 -1.79813,-0.884437 -2.81634,-1.874474 -0.49303,-0.479386 -0.95328,-0.87161 -1.02277,-0.87161 -0.0695,0 -0.83068,0.657225 -1.691527,1.4605 -0.860844,0.803275 -1.857922,1.729959 -2.215729,2.059299 -0.357807,0.329339 -0.650558,0.647389 -0.650558,0.706776 0,0.191026 1.96844,2.063506 2.753474,2.619244 1.37758,0.975213 3.24797,1.771387 4.90712,2.088836 0.78439,0.150078 3.16246,0.167839 4.04928,0.03024 2.36044,-0.366234 4.53462,-1.907035 5.59903,-3.967921 0.40772,-0.789432 0.75605,-1.870625 0.85322,-2.648337 l 0.0607,-0.485974 h 0.3159 0.3159 l 0.0554,1.029293 c 0.0304,0.566111 0.0553,2.147261 0.0553,3.513667 v 2.484374 h 2.667 2.667 v -6.646334 -6.646333 h 5.37633 5.37634 v 6.646333 6.646334 h 2.62467 2.62466 V 67.798502 55.394835 h 2.24367 2.24367 v 12.403667 12.403667 h 2.62466 2.62467 V 67.798502 55.394835 h 2.794 2.794 v -2.455334 -2.455333 h -10.287 -10.287 v 5.757334 5.757333 h -5.37634 -5.37633 v -5.757333 -5.757334 h -2.74814 -2.74814 l 1.95393,-3.407833 c 1.07466,-1.874309 2.19572,-3.811212 2.49125,-4.304229 0.92385,-1.541254 1.02768,-1.911375 0.69083,-2.462678 -0.25587,-0.418782 -0.43275,-0.546027 -1.89526,-1.363423 -0.69198,-0.386744 -3.06194,-1.743505 -5.26658,-3.015026 -2.20464,-1.27152 -4.12659,-2.345739 -4.271,-2.387154 -0.39695,-0.113846 -0.85639,0.04536 -1.14648,0.397294 -0.13668,0.165822 -0.69849,1.08882 -1.24845,2.051105 -2.11863,3.707026 -5.23045,9.043341 -5.42638,9.305453 -0.24696,0.330379 -0.52432,0.413518 -0.99135,0.297153 -0.192076,-0.04786 -0.787381,-0.199937 -1.322897,-0.337953 -2.195061,-0.565722 -5.2083,-0.953376 -7.410607,-0.953376 -1.276861,0 -1.560211,-0.07968 -1.716948,-0.48284 -0.05064,-0.130255 -0.763286,-2.732377 -1.583658,-5.782493 -1.946135,-7.235668 -1.839206,-6.888736 -2.19004,-7.105564 -0.304088,-0.187936 -0.80825,-0.225535 -1.322749,-0.09865 -0.162983,0.0402 -1.058333,0.283671 -1.989666,0.541056 -0.931334,0.257385 -3.160184,0.854327 -4.953001,1.326539 -4.46791,1.176806 -4.957465,1.330167 -5.212095,1.632777 -0.296675,0.352579 -0.269895,0.879068 0.119493,2.349172 0.525703,1.98475 2.017454,7.505468 2.590783,9.588049 l 0.530144,1.925716 -0.690028,0.367074 c -2.167572,1.153084 -6.205294,4.36151 -6.70504,5.327913 -0.07266,0.140511 -0.174952,0.228047 -0.238148,0.203797 -0.141101,-0.05414 -6.484636,-3.683797 -9.487444,-5.428538 -2.263207,-1.315005 -2.290381,-1.327911 -2.725367,-1.294423 -0.241653,0.0186 -0.497558,0.08212 -0.568678,0.141144 -0.189513,0.157282 -1.125066,1.717544 -3.456127,5.763935 -2.736846,4.750775 -3.198226,5.601252 -3.197845,5.894688 4.63e-4,0.356593 0.276944,0.751532 0.692877,0.98974 2.557218,1.464539 8.59221,4.941482 9.805474,5.649233 0.861483,0.502541 1.730194,0.957092 1.930469,1.010114 0.281917,0.07464 0.354226,0.128859 0.32025,0.240147 -0.393941,1.290365 -0.811386,4.477826 -0.811386,6.195458 v 0.581489 l -0.275167,0.08564 c -0.151341,0.0471 -1.094316,0.300696 -2.0955,0.563544 -1.001183,0.262848 -2.639483,0.702457 -3.640667,0.97691 -1.001183,0.274452 -3.115733,0.842616 -4.699,1.262586 -3.847927,1.020682 -3.637408,0.758037 -2.886681,3.601454 1.250839,4.737611 2.712967,10.138733 2.830616,10.456333 0.114854,0.310054 0.2124,0.416418 0.523845,0.571203 l 0.382711,0.190203 1.098755,-0.301292 c 0.604315,-0.16571 2.203654,-0.587139 3.554088,-0.936507 2.545685,-0.65859 8.000346,-2.120847 8.206498,-2.199955 0.0831,-0.03189 0.156189,0.08713 0.249009,0.40544 0.1572,0.539095 1.244113,2.372998 2.174314,3.668629 0.368889,0.513807 1.128463,1.460618 1.687943,2.104023 0.830832,0.95546 1.017237,1.218056 1.017237,1.433019 0,0.18429 -0.327159,0.822959 -1.09129,2.130382 -1.088049,1.861645 -5.075392,8.768054 -5.526213,9.571854 -0.380506,0.67844 -0.304213,1.23799 0.238777,1.75122 0.132216,0.12497 0.678542,0.47208 1.214059,0.77135 0.535516,0.29927 2.802467,1.60284 5.037667,2.89683 4.352838,2.51991 4.781343,2.74883 5.147705,2.75011 0.289925,0.001 0.634351,-0.17073 0.873656,-0.43563 0.09865,-0.1092 1.617677,-2.69409 3.37562,-5.74421 1.757944,-3.05012 3.277432,-5.66871 3.37664,-5.81909 0.317627,-0.48146 0.51856,-0.50891 1.823875,-0.24917 1.745298,0.3473 3.083472,0.54551 4.113839,0.60934 1.071107,0.0664 1.418858,0.1812 1.598081,0.52778 0.07021,0.13578 0.303908,0.91031 0.519323,1.72117 0.215414,0.81087 0.792352,2.9602 1.282084,4.7763 0.489732,1.8161 1.056412,3.94303 1.259289,4.72651 0.424699,1.64012 0.572375,1.97157 0.97451,2.18724 0.330524,0.17726 0.588473,0.19449 1.013605,0.0677 z"
       id="path1" /></g></svg>
